<svg xmlns="http://www.w3.org/2000/svg" width="1450" height="590" viewBox="0 0 1450 590" role="img" aria-label="2026-06-24　5803 フジクラ｜3分足｜9:00–15:30">
<style>
text{font-family:-apple-system,BlinkMacSystemFont,'Hiragino Sans','Yu Gothic',Meiryo,sans-serif}.title{fill:#eef4f8;font-size:22px;font-weight:800}.subtitle{fill:#9eb0be;font-size:12px}.grid{stroke:#2d3b49;stroke-width:1}.axis{fill:#9eb0be;font-size:11px}.panel{fill:#101a24;stroke:#465a6b}.up{fill:#3bc497;stroke:#3bc497}.down{fill:#ec6275;stroke:#ec6275}.volume{fill:#4c86c5;opacity:.56}.volumeHigh{fill:#edae43;opacity:.84;stroke:#edae43}.high{stroke:#edae43;stroke-width:2}.lunch{fill:#ffffff;opacity:.035}.tradeLine{fill:none;stroke-width:1.8;opacity:.88}.entryLong{fill:#72b8ff;stroke:#061019;stroke-width:1.6}.entryShort{fill:#ffd166;stroke:#061019;stroke-width:1.6}.exit{stroke:#061019;stroke-width:1.6}.label{font-size:10px;font-weight:800;paint-order:stroke;stroke:#101a24;stroke-width:3px;stroke-linejoin:round}.muted{fill:#94a7b5;font-size:11px}.markerPositive{fill:#4fd394}.markerNegative{fill:#ff6b7a}.markerFlat{fill:#f1c75b}.hitNote{fill:#f5b94d;font-size:12px;font-weight:800}
</style>
<rect width="100%" height="100%" fill="#0b1219"/>
<text x="76" y="28" class="title">2026-06-24　5803 フジクラ｜3分足｜9:00–15:30</text>
<text x="76" y="47" class="subtitle">約定 2件 / 実現損益プラス 2件 / 合計 +¥7,900 / 出来高上位5本=橙枠 / 歩み値: R2同期CSV</text>
<rect x="76" y="62" width="1356" height="288" class="panel"/>
<rect x="76" y="382" width="1356" height="118" class="panel"/>
<rect x="597.5" y="62" width="208.6" height="438" class="lunch"/>
<text x="701.8" y="78" text-anchor="middle" class="muted">昼休み</text>
<line x1="76" y1="62.0" x2="1432" y2="62.0" class="grid"/>
<text x="67" y="66.0" text-anchor="end" class="axis">6,602.4</text>
<line x1="76" y1="119.6" x2="1432" y2="119.6" class="grid"/>
<text x="67" y="123.6" text-anchor="end" class="axis">6,502.64</text>
<line x1="76" y1="177.2" x2="1432" y2="177.2" class="grid"/>
<text x="67" y="181.2" text-anchor="end" class="axis">6,402.88</text>
<line x1="76" y1="234.8" x2="1432" y2="234.8" class="grid"/>
<text x="67" y="238.8" text-anchor="end" class="axis">6,303.12</text>
<line x1="76" y1="292.4" x2="1432" y2="292.4" class="grid"/>
<text x="67" y="296.4" text-anchor="end" class="axis">6,203.36</text>
<line x1="76" y1="350.0" x2="1432" y2="350.0" class="grid"/>
<text x="67" y="354.0" text-anchor="end" class="axis">6,103.6</text>
<line x1="76.0" y1="62" x2="76.0" y2="500" class="grid"/>
<text x="76.0" y="523" text-anchor="middle" class="axis">09:00</text>
<line x1="284.6" y1="62" x2="284.6" y2="500" class="grid"/>
<text x="284.6" y="523" text-anchor="middle" class="axis">10:00</text>
<line x1="493.2" y1="62" x2="493.2" y2="500" class="grid"/>
<text x="493.2" y="523" text-anchor="middle" class="axis">11:00</text>
<line x1="701.8" y1="62" x2="701.8" y2="500" class="grid"/>
<text x="701.8" y="523" text-anchor="middle" class="axis">12:00</text>
<line x1="910.5" y1="62" x2="910.5" y2="500" class="grid"/>
<text x="910.5" y="523" text-anchor="middle" class="axis">13:00</text>
<line x1="1119.1" y1="62" x2="1119.1" y2="500" class="grid"/>
<text x="1119.1" y="523" text-anchor="middle" class="axis">14:00</text>
<line x1="1327.7" y1="62" x2="1327.7" y2="500" class="grid"/>
<text x="1327.7" y="523" text-anchor="middle" class="axis">15:00</text>
<line x1="1432.0" y1="62" x2="1432.0" y2="500" class="grid"/>
<text x="1432.0" y="523" text-anchor="middle" class="axis">15:30</text>
<line x1="81.2" y1="121.1" x2="81.2" y2="293.2" class="down high"/>
<rect x="76.6" y="206.6" width="9.3" height="82.0" class="down high"><title>09:00:00 始6,352 高6,500 安6,202 終6,210 出来高5,978,400株</title></rect>
<rect x="76.6" y="382.0" width="9.3" height="118.0" class="volumeHigh"/>
<text x="81.2" y="394.0" text-anchor="middle" class="hitNote">#1</text>
<line x1="91.6" y1="267.8" x2="91.6" y2="316.3" class="up high"/>
<rect x="87.0" y="297.2" width="9.3" height="4.0" class="up high"><title>09:03:00 始6,188 高6,246 安6,162 終6,195 出来高3,151,100株</title></rect>
<rect x="87.0" y="437.8" width="9.3" height="62.2" class="volumeHigh"/>
<text x="91.6" y="433.8" text-anchor="middle" class="hitNote">#2</text>
<line x1="102.1" y1="234.3" x2="102.1" y2="316.3" class="up high"/>
<rect x="97.4" y="236.6" width="9.3" height="67.6" class="up high"><title>09:06:00 始6,183 高6,304 安6,162 終6,300 出来高2,216,100株</title></rect>
<rect x="97.4" y="456.3" width="9.3" height="43.7" class="volumeHigh"/>
<line x1="112.5" y1="105.5" x2="112.5" y2="238.3" class="up high"/>
<rect x="107.9" y="108.4" width="9.3" height="128.8" class="up high"><title>09:09:00 始6,299 高6,527 安6,297 終6,522 出来高2,733,800株</title></rect>
<rect x="107.9" y="446.0" width="9.3" height="54.0" class="volumeHigh"/>
<line x1="122.9" y1="81.9" x2="122.9" y2="141.3" class="down high"/>
<rect x="118.3" y="109.0" width="9.3" height="20.2" class="down high"><title>09:12:00 始6,521 高6,568 安6,465 終6,486 出来高2,769,500株</title></rect>
<rect x="118.3" y="445.3" width="9.3" height="54.7" class="volumeHigh"/>
<text x="122.9" y="441.3" text-anchor="middle" class="hitNote">#3</text>
<line x1="133.4" y1="99.8" x2="133.4" y2="159.2" class="down"/>
<rect x="128.7" y="126.3" width="9.3" height="11.0" class="down"><title>09:15:00 始6,491 高6,537 安6,434 終6,472 出来高2,069,400株</title></rect>
<rect x="128.7" y="459.2" width="9.3" height="40.8" class="volume"/>
<line x1="143.8" y1="86.5" x2="143.8" y2="131.5" class="up"/>
<rect x="139.2" y="94.0" width="9.3" height="32.9" class="up"><title>09:18:00 始6,490 高6,560 安6,482 終6,547 出来高1,477,700株</title></rect>
<rect x="139.2" y="470.8" width="9.3" height="29.2" class="volume"/>
<line x1="154.2" y1="92.3" x2="154.2" y2="149.4" class="down"/>
<rect x="149.6" y="94.0" width="9.3" height="38.1" class="down"><title>09:21:00 始6,547 高6,550 安6,451 終6,481 出来高1,104,400株</title></rect>
<rect x="149.6" y="478.2" width="9.3" height="21.8" class="volume"/>
<line x1="164.7" y1="130.9" x2="164.7" y2="207.7" class="down"/>
<rect x="160.0" y="132.1" width="9.3" height="65.2" class="down"><title>09:24:00 始6,481 高6,483 安6,350 終6,368 出来高1,646,100株</title></rect>
<rect x="160.0" y="467.5" width="9.3" height="32.5" class="volume"/>
<line x1="175.1" y1="170.2" x2="175.1" y2="201.4" class="up"/>
<rect x="170.5" y="181.7" width="9.3" height="16.2" class="up"><title>09:27:00 始6,367 高6,415 安6,361 終6,395 出来高988,400株</title></rect>
<rect x="170.5" y="480.5" width="9.3" height="19.5" class="volume"/>
<line x1="185.5" y1="165.6" x2="185.5" y2="185.8" class="down"/>
<rect x="180.9" y="178.3" width="9.3" height="2.9" class="down"><title>09:30:00 始6,401 高6,423 安6,388 終6,396 出来高815,500株</title></rect>
<rect x="180.9" y="483.9" width="9.3" height="16.1" class="volume"/>
<line x1="196.0" y1="169.0" x2="196.0" y2="210.0" class="down"/>
<rect x="191.3" y="182.3" width="9.3" height="21.4" class="down"><title>09:33:00 始6,394 高6,417 安6,346 終6,357 出来高855,000株</title></rect>
<rect x="191.3" y="483.1" width="9.3" height="16.9" class="volume"/>
<line x1="206.4" y1="182.3" x2="206.4" y2="217.5" class="up"/>
<rect x="201.7" y="206.6" width="9.3" height="1.4" class="up"><title>09:36:00 始6,350 高6,394 安6,333 終6,352 出来高881,300株</title></rect>
<rect x="201.7" y="482.6" width="9.3" height="17.4" class="volume"/>
<line x1="216.8" y1="198.5" x2="216.8" y2="239.5" class="down"/>
<rect x="212.2" y="198.5" width="9.3" height="36.4" class="down"><title>09:39:00 始6,366 高6,366 安6,295 終6,303 出来高942,600株</title></rect>
<rect x="212.2" y="481.4" width="9.3" height="18.6" class="volume"/>
<line x1="227.2" y1="199.1" x2="227.2" y2="241.2" class="up"/>
<rect x="222.6" y="207.2" width="9.3" height="28.3" class="up"><title>09:42:00 始6,302 高6,365 安6,292 終6,351 出来高957,600株</title></rect>
<rect x="222.6" y="481.1" width="9.3" height="18.9" class="volume"/>
<line x1="237.7" y1="195.0" x2="237.7" y2="233.1" class="down"/>
<rect x="233.0" y="206.6" width="9.3" height="25.4" class="down"><title>09:45:00 始6,352 高6,372 安6,306 終6,308 出来高834,400株</title></rect>
<rect x="233.0" y="483.5" width="9.3" height="16.5" class="volume"/>
<line x1="248.1" y1="225.1" x2="248.1" y2="261.4" class="down"/>
<rect x="243.5" y="232.0" width="9.3" height="16.7" class="down"><title>09:48:00 始6,308 高6,320 安6,257 終6,279 出来高1,030,000株</title></rect>
<rect x="243.5" y="479.7" width="9.3" height="20.3" class="volume"/>
<line x1="258.5" y1="234.3" x2="258.5" y2="259.7" class="up"/>
<rect x="253.9" y="246.4" width="9.3" height="1.4" class="up"><title>09:51:00 始6,281 高6,304 安6,260 終6,283 出来高779,500株</title></rect>
<rect x="253.9" y="484.6" width="9.3" height="15.4" class="volume"/>
<line x1="269.0" y1="237.8" x2="269.0" y2="258.5" class="down"/>
<rect x="264.3" y="245.8" width="9.3" height="10.4" class="down"><title>09:54:00 始6,284 高6,298 安6,262 終6,266 出来高607,400株</title></rect>
<rect x="264.3" y="488.0" width="9.3" height="12.0" class="volume"/>
<line x1="279.4" y1="204.8" x2="279.4" y2="256.8" class="up"/>
<rect x="274.8" y="211.8" width="9.3" height="45.0" class="up"><title>09:57:00 始6,265 高6,355 安6,265 終6,343 出来高811,200株</title></rect>
<rect x="274.8" y="484.0" width="9.3" height="16.0" class="volume"/>
<line x1="289.8" y1="208.9" x2="289.8" y2="242.4" class="down"/>
<rect x="285.2" y="212.4" width="9.3" height="6.9" class="down"><title>10:00:00 始6,342 高6,348 安6,290 終6,330 出来高590,700株</title></rect>
<rect x="285.2" y="488.3" width="9.3" height="11.7" class="volume"/>
<line x1="300.3" y1="219.9" x2="300.3" y2="237.8" class="down"/>
<rect x="295.6" y="221.6" width="9.3" height="12.7" class="down"><title>10:03:00 始6,326 高6,329 安6,298 終6,304 出来高404,300株</title></rect>
<rect x="295.6" y="492.0" width="9.3" height="8.0" class="volume"/>
<line x1="310.7" y1="203.1" x2="310.7" y2="236.6" class="up"/>
<rect x="306.1" y="221.0" width="9.3" height="12.7" class="up"><title>10:06:00 始6,305 高6,358 安6,300 終6,327 出来高559,500株</title></rect>
<rect x="306.1" y="489.0" width="9.3" height="11.0" class="volume"/>
<line x1="321.1" y1="188.7" x2="321.1" y2="227.4" class="up"/>
<rect x="316.5" y="194.5" width="9.3" height="28.9" class="up"><title>10:09:00 始6,323 高6,383 安6,316 終6,373 出来高584,000株</title></rect>
<rect x="316.5" y="488.5" width="9.3" height="11.5" class="volume"/>
<line x1="331.6" y1="186.9" x2="331.6" y2="207.7" class="down"/>
<rect x="326.9" y="195.0" width="9.3" height="1.7" class="down"><title>10:12:00 始6,372 高6,386 安6,350 終6,369 出来高538,200株</title></rect>
<rect x="326.9" y="489.4" width="9.3" height="10.6" class="volume"/>
<line x1="342.0" y1="181.2" x2="342.0" y2="208.9" class="down"/>
<rect x="337.3" y="197.9" width="9.3" height="11.0" class="down"><title>10:15:00 始6,367 高6,396 安6,348 終6,348 出来高679,700株</title></rect>
<rect x="337.3" y="486.6" width="9.3" height="13.4" class="volume"/>
<line x1="352.4" y1="206.6" x2="352.4" y2="244.7" class="down"/>
<rect x="347.8" y="207.7" width="9.3" height="35.8" class="down"><title>10:18:00 始6,350 高6,352 安6,286 終6,288 出来高654,000株</title></rect>
<rect x="347.8" y="487.1" width="9.3" height="12.9" class="volume"/>
<line x1="362.8" y1="240.1" x2="362.8" y2="260.9" class="up"/>
<rect x="358.2" y="244.1" width="9.3" height="1.4" class="up"><title>10:21:00 始6,287 高6,294 安6,258 終6,287 出来高704,900株</title></rect>
<rect x="358.2" y="486.1" width="9.3" height="13.9" class="volume"/>
<line x1="373.3" y1="218.1" x2="373.3" y2="245.3" class="up"/>
<rect x="368.6" y="225.1" width="9.3" height="18.5" class="up"><title>10:24:00 始6,288 高6,332 安6,285 終6,320 出来高606,700株</title></rect>
<rect x="368.6" y="488.0" width="9.3" height="12.0" class="volume"/>
<line x1="383.7" y1="224.5" x2="383.7" y2="242.4" class="down"/>
<rect x="379.1" y="226.8" width="9.3" height="1.4" class="down"><title>10:27:00 始6,317 高6,321 安6,290 終6,316 出来高390,300株</title></rect>
<rect x="379.1" y="492.3" width="9.3" height="7.7" class="volume"/>
<line x1="394.1" y1="215.8" x2="394.1" y2="234.3" class="up"/>
<rect x="389.5" y="227.4" width="9.3" height="1.7" class="up"><title>10:30:00 始6,313 高6,336 安6,304 終6,316 出来高449,200株</title></rect>
<rect x="389.5" y="491.1" width="9.3" height="8.9" class="volume"/>
<line x1="404.6" y1="214.7" x2="404.6" y2="228.5" class="up"/>
<rect x="399.9" y="218.7" width="9.3" height="9.2" class="up"><title>10:33:00 始6,315 高6,338 安6,314 終6,331 出来高336,300株</title></rect>
<rect x="399.9" y="493.4" width="9.3" height="6.6" class="volume"/>
<line x1="415.0" y1="208.9" x2="415.0" y2="225.6" class="up"/>
<rect x="410.4" y="217.5" width="9.3" height="1.7" class="up"><title>10:36:00 始6,330 高6,348 安6,319 終6,333 出来高340,100株</title></rect>
<rect x="410.4" y="493.3" width="9.3" height="6.7" class="volume"/>
<line x1="425.4" y1="197.3" x2="425.4" y2="218.1" class="up"/>
<rect x="420.8" y="199.6" width="9.3" height="18.5" class="up"><title>10:39:00 始6,332 高6,368 安6,332 終6,364 出来高426,300株</title></rect>
<rect x="420.8" y="491.6" width="9.3" height="8.4" class="volume"/>
<line x1="435.9" y1="192.7" x2="435.9" y2="214.7" class="down"/>
<rect x="431.2" y="199.1" width="9.3" height="15.0" class="down"><title>10:42:00 始6,365 高6,376 安6,338 終6,339 出来高484,600株</title></rect>
<rect x="431.2" y="490.4" width="9.3" height="9.6" class="volume"/>
<line x1="446.3" y1="203.7" x2="446.3" y2="223.3" class="up"/>
<rect x="441.7" y="210.0" width="9.3" height="2.9" class="up"><title>10:45:00 始6,341 高6,357 安6,323 終6,346 出来高371,700株</title></rect>
<rect x="441.7" y="492.7" width="9.3" height="7.3" class="volume"/>
<line x1="456.7" y1="199.1" x2="456.7" y2="219.3" class="up"/>
<rect x="452.1" y="200.8" width="9.3" height="8.7" class="up"><title>10:48:00 始6,347 高6,365 安6,330 終6,362 出来高312,000株</title></rect>
<rect x="452.1" y="493.8" width="9.3" height="6.2" class="volume"/>
<line x1="467.2" y1="198.5" x2="467.2" y2="212.9" class="down"/>
<rect x="462.5" y="202.0" width="9.3" height="1.4" class="down"><title>10:51:00 始6,360 高6,366 安6,341 終6,358 出来高244,100株</title></rect>
<rect x="462.5" y="495.2" width="9.3" height="4.8" class="volume"/>
<line x1="477.6" y1="188.1" x2="477.6" y2="206.0" class="up"/>
<rect x="472.9" y="189.3" width="9.3" height="15.0" class="up"><title>10:54:00 始6,356 高6,384 安6,353 終6,382 出来高413,500株</title></rect>
<rect x="472.9" y="491.8" width="9.3" height="8.2" class="volume"/>
<line x1="488.0" y1="156.9" x2="488.0" y2="189.8" class="up"/>
<rect x="483.4" y="174.8" width="9.3" height="13.9" class="up"><title>10:57:00 始6,383 高6,438 安6,381 終6,407 出来高765,600株</title></rect>
<rect x="483.4" y="484.9" width="9.3" height="15.1" class="volume"/>
<line x1="498.4" y1="144.2" x2="498.4" y2="182.9" class="up"/>
<rect x="493.8" y="152.9" width="9.3" height="24.8" class="up"><title>11:00:00 始6,402 高6,460 安6,393 終6,445 出来高685,400株</title></rect>
<rect x="493.8" y="486.5" width="9.3" height="13.5" class="volume"/>
<line x1="508.9" y1="144.8" x2="508.9" y2="178.9" class="down"/>
<rect x="504.2" y="152.3" width="9.3" height="24.8" class="down"><title>11:03:00 始6,446 高6,459 安6,400 終6,403 出来高492,200株</title></rect>
<rect x="504.2" y="490.3" width="9.3" height="9.7" class="volume"/>
<line x1="519.3" y1="175.4" x2="519.3" y2="190.4" class="down"/>
<rect x="514.7" y="177.1" width="9.3" height="5.2" class="down"><title>11:06:00 始6,403 高6,406 安6,380 終6,394 出来高427,100株</title></rect>
<rect x="514.7" y="491.6" width="9.3" height="8.4" class="volume"/>
<line x1="529.7" y1="167.9" x2="529.7" y2="186.4" class="up"/>
<rect x="525.1" y="181.7" width="9.3" height="1.4" class="up"><title>11:09:00 始6,394 高6,419 安6,387 終6,395 出来高379,500株</title></rect>
<rect x="525.1" y="492.5" width="9.3" height="7.5" class="volume"/>
<line x1="540.2" y1="178.3" x2="540.2" y2="196.8" class="down"/>
<rect x="535.5" y="180.6" width="9.3" height="2.3" class="down"><title>11:12:00 始6,397 高6,401 安6,369 終6,393 出来高383,500株</title></rect>
<rect x="535.5" y="492.4" width="9.3" height="7.6" class="volume"/>
<line x1="550.6" y1="182.9" x2="550.6" y2="204.3" class="down"/>
<rect x="546.0" y="183.5" width="9.3" height="19.6" class="down"><title>11:15:00 始6,392 高6,393 安6,356 終6,358 出来高351,400株</title></rect>
<rect x="546.0" y="493.1" width="9.3" height="6.9" class="volume"/>
<line x1="561.0" y1="189.3" x2="561.0" y2="207.2" class="up"/>
<rect x="556.4" y="200.2" width="9.3" height="4.6" class="up"><title>11:18:00 始6,355 高6,382 安6,351 終6,363 出来高334,000株</title></rect>
<rect x="556.4" y="493.4" width="9.3" height="6.6" class="volume"/>
<line x1="571.5" y1="199.1" x2="571.5" y2="231.4" class="down"/>
<rect x="566.8" y="199.6" width="9.3" height="27.7" class="down"><title>11:21:00 始6,364 高6,365 安6,309 終6,316 出来高497,700株</title></rect>
<rect x="566.8" y="490.2" width="9.3" height="9.8" class="volume"/>
<line x1="581.9" y1="205.4" x2="581.9" y2="229.1" class="up"/>
<rect x="577.3" y="218.7" width="9.3" height="9.2" class="up"><title>11:24:00 始6,315 高6,354 安6,313 終6,331 出来高321,200株</title></rect>
<rect x="577.3" y="493.7" width="9.3" height="6.3" class="volume"/>
<line x1="592.3" y1="207.2" x2="592.3" y2="219.9" class="up"/>
<rect x="587.7" y="207.7" width="9.3" height="11.0" class="up"><title>11:27:00 始6,331 高6,351 安6,329 終6,350 出来高214,200株</title></rect>
<rect x="587.7" y="495.8" width="9.3" height="4.2" class="volume"/>
<line x1="602.8" y1="206.6" x2="602.8" y2="206.6" class="up"/>
<rect x="598.1" y="206.6" width="9.3" height="1.4" class="up"><title>11:30:00 始6,352 高6,352 安6,352 終6,352 出来高66,000株</title></rect>
<rect x="598.1" y="498.7" width="9.3" height="1.3" class="volume"/>
<line x1="811.4" y1="193.3" x2="811.4" y2="232.6" class="up"/>
<rect x="806.7" y="197.9" width="9.3" height="17.9" class="up"><title>12:30:00 始6,336 高6,375 安6,307 終6,367 出来高1,023,100株</title></rect>
<rect x="806.7" y="479.8" width="9.3" height="20.2" class="volume"/>
<line x1="821.8" y1="177.1" x2="821.8" y2="204.3" class="up"/>
<rect x="817.2" y="197.9" width="9.3" height="1.4" class="up"><title>12:33:00 始6,365 高6,403 安6,356 終6,367 出来高675,300株</title></rect>
<rect x="817.2" y="486.7" width="9.3" height="13.3" class="volume"/>
<line x1="832.2" y1="196.2" x2="832.2" y2="222.7" class="down"/>
<rect x="827.6" y="200.2" width="9.3" height="21.4" class="down"><title>12:36:00 始6,363 高6,370 安6,324 終6,326 出来高516,800株</title></rect>
<rect x="827.6" y="489.8" width="9.3" height="10.2" class="volume"/>
<line x1="842.7" y1="221.0" x2="842.7" y2="243.5" class="down"/>
<rect x="838.0" y="221.6" width="9.3" height="16.7" class="down"><title>12:39:00 始6,326 高6,327 安6,288 終6,297 出来高864,000株</title></rect>
<rect x="838.0" y="482.9" width="9.3" height="17.1" class="volume"/>
<line x1="853.1" y1="222.7" x2="853.1" y2="241.2" class="up"/>
<rect x="848.5" y="227.9" width="9.3" height="10.4" class="up"><title>12:42:00 始6,297 高6,324 安6,292 終6,315 出来高430,000株</title></rect>
<rect x="848.5" y="491.5" width="9.3" height="8.5" class="volume"/>
<line x1="863.5" y1="228.5" x2="863.5" y2="247.0" class="down"/>
<rect x="858.9" y="229.7" width="9.3" height="13.3" class="down"><title>12:45:00 始6,312 高6,314 安6,282 終6,289 出来高446,900株</title></rect>
<rect x="858.9" y="491.2" width="9.3" height="8.8" class="volume"/>
<line x1="874.0" y1="238.3" x2="874.0" y2="260.9" class="down"/>
<rect x="869.3" y="241.8" width="9.3" height="16.7" class="down"><title>12:48:00 始6,291 高6,297 安6,258 終6,262 出来高542,500株</title></rect>
<rect x="869.3" y="489.3" width="9.3" height="10.7" class="volume"/>
<line x1="884.4" y1="249.3" x2="884.4" y2="262.0" class="up"/>
<rect x="879.7" y="256.8" width="9.3" height="2.3" class="up"><title>12:51:00 始6,261 高6,278 安6,256 終6,265 出来高462,900株</title></rect>
<rect x="879.7" y="490.9" width="9.3" height="9.1" class="volume"/>
<line x1="894.8" y1="244.7" x2="894.8" y2="265.5" class="up"/>
<rect x="890.2" y="250.5" width="9.3" height="5.8" class="up"><title>12:54:00 始6,266 高6,286 安6,250 終6,276 出来高467,100株</title></rect>
<rect x="890.2" y="490.8" width="9.3" height="9.2" class="volume"/>
<line x1="905.2" y1="241.8" x2="905.2" y2="250.5" class="down"/>
<rect x="900.6" y="248.7" width="9.3" height="1.4" class="down"><title>12:57:00 始6,279 高6,291 安6,276 終6,277 出来高372,200株</title></rect>
<rect x="900.6" y="492.7" width="9.3" height="7.3" class="volume"/>
<line x1="915.7" y1="248.7" x2="915.7" y2="278.2" class="down"/>
<rect x="911.0" y="248.7" width="9.3" height="26.6" class="down"><title>13:00:00 始6,279 高6,279 安6,228 終6,233 出来高718,200株</title></rect>
<rect x="911.0" y="485.8" width="9.3" height="14.2" class="volume"/>
<line x1="926.1" y1="275.3" x2="926.1" y2="293.8" class="down"/>
<rect x="921.5" y="275.9" width="9.3" height="15.6" class="down"><title>13:03:00 始6,232 高6,233 安6,201 終6,205 出来高574,400株</title></rect>
<rect x="921.5" y="488.7" width="9.3" height="11.3" class="volume"/>
<line x1="936.5" y1="286.8" x2="936.5" y2="309.9" class="down"/>
<rect x="931.9" y="293.2" width="9.3" height="9.2" class="down"><title>13:06:00 始6,202 高6,213 安6,173 終6,186 出来高935,000株</title></rect>
<rect x="931.9" y="481.5" width="9.3" height="18.5" class="volume"/>
<line x1="947.0" y1="292.0" x2="947.0" y2="308.2" class="up"/>
<rect x="942.3" y="296.1" width="9.3" height="5.2" class="up"><title>13:09:00 始6,188 高6,204 安6,176 終6,197 出来高510,900株</title></rect>
<rect x="942.3" y="489.9" width="9.3" height="10.1" class="volume"/>
<line x1="957.4" y1="289.1" x2="957.4" y2="305.9" class="down"/>
<rect x="952.8" y="295.5" width="9.3" height="6.9" class="down"><title>13:12:00 始6,198 高6,209 安6,180 終6,186 出来高489,700株</title></rect>
<rect x="952.8" y="490.3" width="9.3" height="9.7" class="volume"/>
<line x1="967.8" y1="296.1" x2="967.8" y2="305.3" class="up"/>
<rect x="963.2" y="301.3" width="9.3" height="1.7" class="up"><title>13:15:00 始6,185 高6,197 安6,181 終6,188 出来高331,100株</title></rect>
<rect x="963.2" y="493.5" width="9.3" height="6.5" class="volume"/>
<line x1="978.3" y1="292.6" x2="978.3" y2="312.2" class="down"/>
<rect x="973.6" y="300.7" width="9.3" height="8.7" class="down"><title>13:18:00 始6,189 高6,203 安6,169 終6,174 出来高499,500株</title></rect>
<rect x="973.6" y="490.1" width="9.3" height="9.9" class="volume"/>
<line x1="988.7" y1="304.2" x2="988.7" y2="330.1" class="down"/>
<rect x="984.1" y="308.2" width="9.3" height="8.1" class="down"><title>13:21:00 始6,176 高6,183 安6,138 終6,162 出来高1,043,600株</title></rect>
<rect x="984.1" y="479.4" width="9.3" height="20.6" class="volume"/>
<line x1="999.1" y1="309.9" x2="999.1" y2="321.5" class="up"/>
<rect x="994.5" y="314.5" width="9.3" height="2.3" class="up"><title>13:24:00 始6,161 高6,173 安6,153 終6,165 出来高422,700株</title></rect>
<rect x="994.5" y="491.7" width="9.3" height="8.3" class="volume"/>
<line x1="1009.6" y1="300.7" x2="1009.6" y2="315.7" class="up"/>
<rect x="1004.9" y="309.4" width="9.3" height="6.4" class="up"><title>13:27:00 始6,163 高6,189 安6,163 終6,174 出来高526,400株</title></rect>
<rect x="1004.9" y="489.6" width="9.3" height="10.4" class="volume"/>
<line x1="1020.0" y1="304.7" x2="1020.0" y2="328.4" class="down"/>
<rect x="1015.3" y="312.8" width="9.3" height="1.4" class="down"><title>13:30:00 始6,168 高6,182 安6,141 終6,167 出来高489,700株</title></rect>
<rect x="1015.3" y="490.3" width="9.3" height="9.7" class="volume"/>
<line x1="1030.4" y1="286.3" x2="1030.4" y2="314.5" class="up"/>
<rect x="1025.8" y="287.4" width="9.3" height="26.0" class="up"><title>13:33:00 始6,167 高6,214 安6,165 終6,212 出来高565,500株</title></rect>
<rect x="1025.8" y="488.8" width="9.3" height="11.2" class="volume"/>
<line x1="1040.8" y1="271.2" x2="1040.8" y2="290.9" class="up"/>
<rect x="1036.2" y="279.9" width="9.3" height="8.1" class="up"><title>13:36:00 始6,211 高6,240 安6,206 終6,225 出来高577,700株</title></rect>
<rect x="1036.2" y="488.6" width="9.3" height="11.4" class="volume"/>
<line x1="1051.3" y1="274.7" x2="1051.3" y2="293.8" class="up"/>
<rect x="1046.6" y="276.4" width="9.3" height="5.2" class="up"><title>13:39:00 始6,222 高6,234 安6,201 終6,231 出来高401,900株</title></rect>
<rect x="1046.6" y="492.1" width="9.3" height="7.9" class="volume"/>
<line x1="1061.7" y1="269.5" x2="1061.7" y2="279.3" class="down"/>
<rect x="1057.1" y="276.4" width="9.3" height="1.4" class="down"><title>13:42:00 始6,231 高6,243 安6,226 終6,230 出来高373,100株</title></rect>
<rect x="1057.1" y="492.6" width="9.3" height="7.4" class="volume"/>
<line x1="1072.1" y1="265.5" x2="1072.1" y2="288.6" class="down"/>
<rect x="1067.5" y="278.2" width="9.3" height="4.6" class="down"><title>13:45:00 始6,228 高6,250 安6,210 終6,220 出来高409,100株</title></rect>
<rect x="1067.5" y="491.9" width="9.3" height="8.1" class="volume"/>
<line x1="1082.6" y1="268.9" x2="1082.6" y2="285.7" class="up"/>
<rect x="1077.9" y="276.4" width="9.3" height="9.2" class="up"><title>13:48:00 始6,215 高6,244 安6,215 終6,231 出来高351,300株</title></rect>
<rect x="1077.9" y="493.1" width="9.3" height="6.9" class="volume"/>
<line x1="1093.0" y1="269.5" x2="1093.0" y2="278.8" class="up"/>
<rect x="1088.4" y="275.3" width="9.3" height="1.4" class="up"><title>13:51:00 始6,231 高6,243 安6,227 終6,233 出来高221,900株</title></rect>
<rect x="1088.4" y="495.6" width="9.3" height="4.4" class="volume"/>
<line x1="1103.4" y1="241.2" x2="1103.4" y2="278.2" class="up"/>
<rect x="1098.8" y="241.2" width="9.3" height="35.8" class="up"><title>13:54:00 始6,230 高6,292 安6,228 終6,292 出来高564,700株</title></rect>
<rect x="1098.8" y="488.9" width="9.3" height="11.1" class="volume"/>
<line x1="1113.9" y1="233.1" x2="1113.9" y2="243.5" class="up"/>
<rect x="1109.2" y="238.9" width="9.3" height="2.9" class="up"><title>13:57:00 始6,291 高6,306 安6,288 終6,296 出来高548,100株</title></rect>
<rect x="1109.2" y="489.2" width="9.3" height="10.8" class="volume"/>
<line x1="1124.3" y1="213.5" x2="1124.3" y2="237.8" class="up"/>
<rect x="1119.7" y="214.7" width="9.3" height="21.4" class="up"><title>14:00:00 始6,301 高6,340 安6,298 終6,338 出来高658,700株</title></rect>
<rect x="1119.7" y="487.0" width="9.3" height="13.0" class="volume"/>
<line x1="1134.7" y1="212.4" x2="1134.7" y2="234.9" class="down"/>
<rect x="1130.1" y="215.2" width="9.3" height="18.5" class="down"><title>14:03:00 始6,337 高6,342 安6,303 終6,305 出来高599,100株</title></rect>
<rect x="1130.1" y="488.2" width="9.3" height="11.8" class="volume"/>
<line x1="1145.2" y1="219.3" x2="1145.2" y2="242.4" class="up"/>
<rect x="1140.5" y="222.2" width="9.3" height="12.1" class="up"><title>14:06:00 始6,304 高6,330 安6,290 終6,325 出来高460,900株</title></rect>
<rect x="1140.5" y="490.9" width="9.3" height="9.1" class="volume"/>
<line x1="1155.6" y1="208.9" x2="1155.6" y2="224.5" class="up"/>
<rect x="1150.9" y="210.0" width="9.3" height="13.9" class="up"><title>14:09:00 始6,322 高6,348 安6,321 終6,346 出来高389,700株</title></rect>
<rect x="1150.9" y="492.3" width="9.3" height="7.7" class="volume"/>
<line x1="1166.0" y1="194.5" x2="1166.0" y2="212.4" class="up"/>
<rect x="1161.4" y="195.6" width="9.3" height="15.0" class="up"><title>14:12:00 始6,345 高6,373 安6,342 終6,371 出来高530,200株</title></rect>
<rect x="1161.4" y="489.5" width="9.3" height="10.5" class="volume"/>
<line x1="1176.4" y1="179.4" x2="1176.4" y2="202.5" class="up"/>
<rect x="1171.8" y="182.3" width="9.3" height="12.7" class="up"><title>14:15:00 始6,372 高6,399 安6,359 終6,394 出来高621,600株</title></rect>
<rect x="1171.8" y="487.7" width="9.3" height="12.3" class="volume"/>
<line x1="1186.9" y1="174.2" x2="1186.9" y2="185.8" class="up"/>
<rect x="1182.2" y="181.7" width="9.3" height="1.4" class="up"><title>14:18:00 始6,393 高6,408 安6,388 終6,395 出来高548,900株</title></rect>
<rect x="1182.2" y="489.2" width="9.3" height="10.8" class="volume"/>
<line x1="1197.3" y1="167.9" x2="1197.3" y2="181.7" class="up"/>
<rect x="1192.7" y="174.2" width="9.3" height="6.9" class="up"><title>14:21:00 始6,396 高6,419 安6,395 終6,408 出来高536,400株</title></rect>
<rect x="1192.7" y="489.4" width="9.3" height="10.6" class="volume"/>
<line x1="1207.7" y1="159.2" x2="1207.7" y2="193.3" class="down"/>
<rect x="1203.1" y="174.8" width="9.3" height="17.9" class="down"><title>14:24:00 始6,407 高6,434 安6,375 終6,376 出来高744,700株</title></rect>
<rect x="1203.1" y="485.3" width="9.3" height="14.7" class="volume"/>
<line x1="1218.2" y1="184.1" x2="1218.2" y2="199.1" class="down"/>
<rect x="1213.5" y="191.0" width="9.3" height="1.4" class="down"><title>14:27:00 始6,379 高6,391 安6,365 終6,377 出来高565,100株</title></rect>
<rect x="1213.5" y="488.8" width="9.3" height="11.2" class="volume"/>
<line x1="1228.6" y1="174.8" x2="1228.6" y2="192.7" class="up"/>
<rect x="1224.0" y="176.6" width="9.3" height="13.3" class="up"><title>14:30:00 始6,381 高6,407 安6,376 終6,404 出来高509,400株</title></rect>
<rect x="1224.0" y="489.9" width="9.3" height="10.1" class="volume"/>
<line x1="1239.0" y1="164.4" x2="1239.0" y2="181.2" class="up"/>
<rect x="1234.4" y="164.4" width="9.3" height="12.1" class="up"><title>14:33:00 始6,404 高6,425 安6,396 終6,425 出来高510,200株</title></rect>
<rect x="1234.4" y="489.9" width="9.3" height="10.1" class="volume"/>
<line x1="1249.5" y1="134.4" x2="1249.5" y2="165.6" class="up"/>
<rect x="1244.8" y="134.4" width="9.3" height="30.6" class="up"><title>14:36:00 始6,424 高6,477 安6,423 終6,477 出来高830,900株</title></rect>
<rect x="1244.8" y="483.6" width="9.3" height="16.4" class="volume"/>
<line x1="1259.9" y1="123.4" x2="1259.9" y2="138.4" class="down"/>
<rect x="1255.3" y="135.6" width="9.3" height="1.7" class="down"><title>14:39:00 始6,475 高6,496 安6,470 終6,472 出来高739,300株</title></rect>
<rect x="1255.3" y="485.4" width="9.3" height="14.6" class="volume"/>
<line x1="1270.3" y1="116.5" x2="1270.3" y2="142.5" class="up"/>
<rect x="1265.7" y="132.7" width="9.3" height="2.9" class="up"><title>14:42:00 始6,475 高6,508 安6,463 終6,480 出来高1,090,900株</title></rect>
<rect x="1265.7" y="478.5" width="9.3" height="21.5" class="volume"/>
<line x1="1280.8" y1="121.7" x2="1280.8" y2="148.3" class="up"/>
<rect x="1276.1" y="123.4" width="9.3" height="11.5" class="up"><title>14:45:00 始6,476 高6,499 安6,453 終6,496 出来高552,600株</title></rect>
<rect x="1276.1" y="489.1" width="9.3" height="10.9" class="volume"/>
<line x1="1291.2" y1="100.3" x2="1291.2" y2="124.0" class="up"/>
<rect x="1286.5" y="111.9" width="9.3" height="10.4" class="up"><title>14:48:00 始6,498 高6,536 安6,495 終6,516 出来高770,000株</title></rect>
<rect x="1286.5" y="484.8" width="9.3" height="15.2" class="volume"/>
<line x1="1301.6" y1="111.9" x2="1301.6" y2="148.3" class="down"/>
<rect x="1297.0" y="111.9" width="9.3" height="29.4" class="down"><title>14:51:00 始6,516 高6,516 安6,453 終6,465 出来高713,700株</title></rect>
<rect x="1297.0" y="485.9" width="9.3" height="14.1" class="volume"/>
<line x1="1312.0" y1="140.8" x2="1312.0" y2="166.2" class="down"/>
<rect x="1307.4" y="140.8" width="9.3" height="21.9" class="down"><title>14:54:00 始6,466 高6,466 安6,422 終6,428 出来高667,800株</title></rect>
<rect x="1307.4" y="486.8" width="9.3" height="13.2" class="volume"/>
<line x1="1322.5" y1="150.0" x2="1322.5" y2="166.2" class="up"/>
<rect x="1317.8" y="151.7" width="9.3" height="8.1" class="up"><title>14:57:00 始6,433 高6,450 安6,422 終6,447 出来高453,800株</title></rect>
<rect x="1317.8" y="491.0" width="9.3" height="9.0" class="volume"/>
<line x1="1332.9" y1="148.3" x2="1332.9" y2="170.2" class="down"/>
<rect x="1328.3" y="148.8" width="9.3" height="12.1" class="down"><title>15:00:00 始6,452 高6,453 安6,415 終6,431 出来高433,000株</title></rect>
<rect x="1328.3" y="491.5" width="9.3" height="8.5" class="volume"/>
<line x1="1343.3" y1="146.0" x2="1343.3" y2="160.4" class="up"/>
<rect x="1338.7" y="149.4" width="9.3" height="10.4" class="up"><title>15:03:00 始6,433 高6,457 安6,432 終6,451 出来高386,300株</title></rect>
<rect x="1338.7" y="492.4" width="9.3" height="7.6" class="volume"/>
<line x1="1353.8" y1="141.9" x2="1353.8" y2="157.5" class="up"/>
<rect x="1349.1" y="144.8" width="9.3" height="4.6" class="up"><title>15:06:00 始6,451 高6,464 安6,437 終6,459 出来高338,800株</title></rect>
<rect x="1349.1" y="493.3" width="9.3" height="6.7" class="volume"/>
<line x1="1364.2" y1="139.6" x2="1364.2" y2="151.7" class="down"/>
<rect x="1359.6" y="144.2" width="9.3" height="4.6" class="down"><title>15:09:00 始6,460 高6,468 安6,447 終6,452 出来高405,800株</title></rect>
<rect x="1359.6" y="492.0" width="9.3" height="8.0" class="volume"/>
<line x1="1374.6" y1="146.5" x2="1374.6" y2="163.9" class="down"/>
<rect x="1370.0" y="148.8" width="9.3" height="12.1" class="down"><title>15:12:00 始6,452 高6,456 安6,426 終6,431 出来高314,600株</title></rect>
<rect x="1370.0" y="493.8" width="9.3" height="6.2" class="volume"/>
<line x1="1385.1" y1="160.4" x2="1385.1" y2="195.6" class="down"/>
<rect x="1380.4" y="161.0" width="9.3" height="28.3" class="down"><title>15:15:00 始6,431 高6,432 安6,371 終6,382 出来高571,200株</title></rect>
<rect x="1380.4" y="488.7" width="9.3" height="11.3" class="volume"/>
<line x1="1395.5" y1="180.0" x2="1395.5" y2="193.3" class="down"/>
<rect x="1390.9" y="189.3" width="9.3" height="1.4" class="down"><title>15:18:00 始6,382 高6,398 安6,375 終6,381 出来高378,400株</title></rect>
<rect x="1390.9" y="492.5" width="9.3" height="7.5" class="volume"/>
<line x1="1405.9" y1="181.7" x2="1405.9" y2="193.3" class="up"/>
<rect x="1401.3" y="186.4" width="9.3" height="4.0" class="up"><title>15:21:00 始6,380 高6,395 安6,375 終6,387 出来高241,300株</title></rect>
<rect x="1401.3" y="495.2" width="9.3" height="4.8" class="volume"/>
<line x1="1416.4" y1="184.6" x2="1416.4" y2="191.0" class="up"/>
<rect x="1411.7" y="188.1" width="9.3" height="1.4" class="up"><title>15:24:00 始6,384 高6,390 安6,379 終6,384 出来高139,600株</title></rect>
<rect x="1411.7" y="497.2" width="9.3" height="2.8" class="volume"/>
<line x1="1432.0" y1="229.1" x2="1432.0" y2="229.1" class="up"/>
<rect x="1427.4" y="229.1" width="9.3" height="1.4" class="up"><title>15:30:00 始6,313 高6,313 安6,313 終6,313 出来高2,114,400株</title></rect>
<rect x="1427.4" y="458.3" width="9.3" height="41.7" class="volume"/>
<g><title>#1 LONG ENTRY 09:06:00 6,197 → 09:07:00 6,241 +¥4,400 100株</title>
<line x1="96.9" y1="296.1" x2="100.3" y2="270.7" class="tradeLine" stroke="#4fd394"/>
<polygon points="96.9,286.1 90.9,299.1 102.9,299.1" class="entryLong"/>
<circle cx="100.3" cy="270.7" r="4.2" class="exit" fill="#4fd394"/>
<text x="103.9" y="283.1" text-anchor="start" class="label markerPositive">#1 E 6,197</text>
<text x="107.3" y="263.7" text-anchor="start" class="label markerPositive">TP +¥4,400</text>
</g>
<g><title>#2 LONG ENTRY 09:50:00 6,264 → 09:51:00 6,299 +¥3,500 100株</title>
<line x1="249.8" y1="257.4" x2="253.3" y2="237.2" class="tradeLine" stroke="#4fd394"/>
<polygon points="249.8,247.4 243.8,260.4 255.8,260.4" class="entryLong"/>
<circle cx="253.3" cy="237.2" r="4.2" class="exit" fill="#4fd394"/>
<text x="256.8" y="244.4" text-anchor="start" class="label markerPositive">#2 E 6,264</text>
<text x="260.3" y="230.2" text-anchor="start" class="label markerPositive">TP +¥3,500</text>
</g>
<text x="76" y="343" class="muted">価格（円） / 3分足</text>
<text x="76" y="493" class="muted">出来高（株） / 橙枠=出来高上位5本</text>
<text x="1432" y="523" text-anchor="end" class="axis">時刻</text>
</svg>