<svg xmlns="http://www.w3.org/2000/svg" width="1200" height="690" viewBox="0 0 1200 690" role="img" aria-label="2026/08/19 6981 ENTRY板"><style>text{font-family:-apple-system,BlinkMacSystemFont,"Hiragino Sans","Yu Gothic",Meiryo,sans-serif}.title{fill:#edf6fb;font-size:21px;font-weight:800}.sub{fill:#a7bac7;font-size:12px}.head{fill:#ff8b98;font-size:14px;font-weight:800}.bidhead{fill:#77e3a9;font-size:14px;font-weight:800}.label{fill:#edf6fb;font-size:13px}.muted{fill:#a7bac7;font-size:11px}.sellbar{fill:#b84f62;opacity:.72}.buybar{fill:#2f9a72;opacity:.8}.row{stroke:#29465a;stroke-width:1}.center{fill:#12283a;stroke:#71d8ef;stroke-width:1.5}.badge{fill:#f4c95d}.badgetext{fill:#071019;font-size:11px;font-weight:800}</style><rect width="100%" height="100%" fill="#0b1219"/><text x="50" y="34" class="title">2026/08/19 6981 村田製作所｜ENTRY時点の板</text><text x="50" y="55" class="sub">板読みTools　2026-08-19T09:14:00+09:00　現在値 7,306円　VWAP 7,281.459円</text><text x="50" y="91" class="head">売り注文（上）</text><text x="50" y="111" class="muted">数量・板の厚み</text><text x="600" y="111" class="muted">価格</text><text x="740" y="91" class="bidhead">買い注文（下）</text><text x="740" y="111" class="muted">価格</text><text x="900" y="111" class="muted">数量・板の厚み</text><line x1="50" y1="143" x2="1150" y2="143" class="row" opacity=".5"/><rect x="556.49" y="124" width="23.51" height="16" rx="4" class="sellbar"/><text x="546.49" y="137" text-anchor="end" class="label">600</text><text x="610" y="137" class="label">7,315</text><line x1="50" y1="366" x2="1150" y2="366" class="row" opacity=".5"/><rect x="900" y="347" width="35.26" height="16" rx="4" class="buybar"/><text x="750" y="360" class="label">7,304</text><text x="947.26" y="360" class="label">900</text><text x="950.26" y="360" class="muted">L1</text><line x1="50" y1="164" x2="1150" y2="164" class="row" opacity=".5"/><rect x="525.15" y="145" width="54.85" height="16" rx="4" class="sellbar"/><text x="515.15" y="158" text-anchor="end" class="label">1,400</text><text x="610" y="158" class="label">7,314</text><line x1="50" y1="387" x2="1150" y2="387" class="row" opacity=".5"/><rect x="900" y="368" width="19.59" height="16" rx="4" class="buybar"/><text x="750" y="381" class="label">7,303</text><text x="931.59" y="381" class="label">500</text><text x="934.59" y="381" class="muted">L2</text><line x1="50" y1="185" x2="1150" y2="185" class="row" opacity=".5"/><rect x="521.24" y="166" width="58.76" height="16" rx="4" class="sellbar"/><text x="511.24" y="179" text-anchor="end" class="label">1,500</text><text x="610" y="179" class="label">7,313</text><line x1="50" y1="408" x2="1150" y2="408" class="row" opacity=".5"/><rect x="900" y="389" width="35.26" height="16" rx="4" class="buybar"/><text x="750" y="402" class="label">7,302</text><text x="947.26" y="402" class="label">900</text><text x="950.26" y="402" class="muted">L3</text><line x1="50" y1="206" x2="1150" y2="206" class="row" opacity=".5"/><rect x="552.58" y="187" width="27.42" height="16" rx="4" class="sellbar"/><text x="542.58" y="200" text-anchor="end" class="label">700</text><text x="610" y="200" class="label">7,312</text><line x1="50" y1="429" x2="1150" y2="429" class="row" opacity=".5"/><rect x="900" y="410" width="82.27" height="16" rx="4" class="buybar"/><text x="750" y="423" class="label">7,301</text><text x="994.27" y="423" class="label">2,100</text><line x1="50" y1="227" x2="1150" y2="227" class="row" opacity=".5"/><rect x="540.82" y="208" width="39.18" height="16" rx="4" class="sellbar"/><text x="530.82" y="221" text-anchor="end" class="label">1,000</text><text x="610" y="221" class="label">7,311</text><line x1="50" y1="450" x2="1150" y2="450" class="row" opacity=".5"/><rect x="900" y="431" width="380.00" height="16" rx="4" class="buybar"/><text x="750" y="444" class="label">7,300</text><text x="1140.00" y="444" class="label">9,700</text><line x1="50" y1="248" x2="1150" y2="248" class="row" opacity=".5"/><rect x="552.58" y="229" width="27.42" height="16" rx="4" class="sellbar"/><text x="542.58" y="242" text-anchor="end" class="label">700</text><text x="610" y="242" class="label">7,310</text><line x1="50" y1="471" x2="1150" y2="471" class="row" opacity=".5"/><rect x="900" y="452" width="62.68" height="16" rx="4" class="buybar"/><text x="750" y="465" class="label">7,299</text><text x="974.68" y="465" class="label">1,600</text><line x1="50" y1="269" x2="1150" y2="269" class="row" opacity=".5"/><rect x="552.58" y="250" width="27.42" height="16" rx="4" class="sellbar"/><text x="542.58" y="263" text-anchor="end" class="label">700</text><text x="610" y="263" class="label">7,309</text><line x1="50" y1="492" x2="1150" y2="492" class="row" opacity=".5"/><rect x="900" y="473" width="125.36" height="16" rx="4" class="buybar"/><text x="750" y="486" class="label">7,298</text><text x="1037.36" y="486" class="label">3,200</text><line x1="50" y1="290" x2="1150" y2="290" class="row" opacity=".5"/><rect x="568.25" y="271" width="11.75" height="16" rx="4" class="sellbar"/><text x="558.25" y="284" text-anchor="end" class="label">300</text><text x="610" y="284" class="label">7,308</text><text x="550.25" y="284" text-anchor="end" class="muted">L3</text><line x1="50" y1="513" x2="1150" y2="513" class="row" opacity=".5"/><rect x="900" y="494" width="47.01" height="16" rx="4" class="buybar"/><text x="750" y="507" class="label">7,297</text><text x="959.01" y="507" class="label">1,200</text><line x1="50" y1="311" x2="1150" y2="311" class="row" opacity=".5"/><rect x="552.58" y="292" width="27.42" height="16" rx="4" class="sellbar"/><text x="542.58" y="305" text-anchor="end" class="label">700</text><text x="610" y="305" class="label">7,307</text><text x="534.58" y="305" text-anchor="end" class="muted">L2</text><line x1="50" y1="534" x2="1150" y2="534" class="row" opacity=".5"/><rect x="900" y="515" width="70.52" height="16" rx="4" class="buybar"/><text x="750" y="528" class="label">7,296</text><text x="982.52" y="528" class="label">1,800</text><line x1="50" y1="332" x2="1150" y2="332" class="row" opacity=".5"/><rect x="576.08" y="313" width="3.92" height="16" rx="4" class="sellbar"/><text x="566.08" y="326" text-anchor="end" class="label">100</text><text x="610" y="326" class="label">7,306</text><text x="558.08" y="326" text-anchor="end" class="muted">L1</text><line x1="50" y1="555" x2="1150" y2="555" class="row" opacity=".5"/><rect x="900" y="536" width="180.21" height="16" rx="4" class="buybar"/><text x="750" y="549" class="label">7,295</text><text x="1092.21" y="549" class="label">4,600</text><rect x="50" y="575" width="1100" height="96" rx="10" class="center"/><text x="72" y="603" class="label">最良買い 7,304　最良売り 7,306　スプレッド 2</text><text x="72" y="627" class="label">買い上位5段 14,100　／　売り上位5段 2,500　／　需給差 +69.9%</text><text x="72" y="651" class="muted">数量だけでは方向を決めず、歩み値で板を吸収したかを確認。</text></svg>