<svg xmlns="http://www.w3.org/2000/svg" width="1450" height="590" viewBox="0 0 1450 590" role="img" aria-label="2026-05-22　5803 フジクラ｜15秒足｜9:00–15:30">
<style>
text{font-family:-apple-system,BlinkMacSystemFont,'Hiragino Sans','Yu Gothic',Meiryo,sans-serif}.title{fill:#eef4f8;font-size:22px;font-weight:800}.subtitle{fill:#9eb0be;font-size:12px}.grid{stroke:#2d3b49;stroke-width:1}.axis{fill:#9eb0be;font-size:11px}.panel{fill:#101a24;stroke:#465a6b}.up{fill:#3bc497;stroke:#3bc497}.down{fill:#ec6275;stroke:#ec6275}.volume{fill:#4c86c5;opacity:.56}.volumeHigh{fill:#edae43;opacity:.84;stroke:#edae43}.high{stroke:#edae43;stroke-width:2}.lunch{fill:#ffffff;opacity:.035}.tradeLine{fill:none;stroke-width:1.8;opacity:.88}.entryLong{fill:#72b8ff;stroke:#061019;stroke-width:1.6}.entryShort{fill:#ffd166;stroke:#061019;stroke-width:1.6}.exit{stroke:#061019;stroke-width:1.6}.label{font-size:10px;font-weight:800;paint-order:stroke;stroke:#101a24;stroke-width:3px;stroke-linejoin:round}.muted{fill:#94a7b5;font-size:11px}.markerPositive{fill:#4fd394}.markerNegative{fill:#ff6b7a}.markerFlat{fill:#f1c75b}.hitNote{fill:#f5b94d;font-size:12px;font-weight:800}
</style>
<rect width="100%" height="100%" fill="#0b1219"/>
<text x="76" y="28" class="title">2026-05-22　5803 フジクラ｜15秒足｜9:00–15:30</text>
<text x="76" y="47" class="subtitle">約定 3件 / 実現損益プラス 2件 / 合計 +¥600 / 出来高上位5本=橙枠 / 歩み値: 未取得</text>
<rect x="76" y="62" width="1356" height="288" class="panel"/>
<rect x="76" y="382" width="1356" height="118" class="panel"/>
<rect x="597.5" y="62" width="208.6" height="438" class="lunch"/>
<text x="701.8" y="78" text-anchor="middle" class="muted">昼休み</text>
<line x1="76" y1="62.0" x2="1432" y2="62.0" class="grid"/>
<text x="67" y="66.0" text-anchor="end" class="axis">4,776.8</text>
<line x1="76" y1="119.6" x2="1432" y2="119.6" class="grid"/>
<text x="67" y="123.6" text-anchor="end" class="axis">4,774.48</text>
<line x1="76" y1="177.2" x2="1432" y2="177.2" class="grid"/>
<text x="67" y="181.2" text-anchor="end" class="axis">4,772.16</text>
<line x1="76" y1="234.8" x2="1432" y2="234.8" class="grid"/>
<text x="67" y="238.8" text-anchor="end" class="axis">4,769.84</text>
<line x1="76" y1="292.4" x2="1432" y2="292.4" class="grid"/>
<text x="67" y="296.4" text-anchor="end" class="axis">4,767.52</text>
<line x1="76" y1="350.0" x2="1432" y2="350.0" class="grid"/>
<text x="67" y="354.0" text-anchor="end" class="axis">4,765.2</text>
<line x1="76.0" y1="62" x2="76.0" y2="500" class="grid"/>
<text x="76.0" y="523" text-anchor="middle" class="axis">09:00</text>
<line x1="284.6" y1="62" x2="284.6" y2="500" class="grid"/>
<text x="284.6" y="523" text-anchor="middle" class="axis">10:00</text>
<line x1="493.2" y1="62" x2="493.2" y2="500" class="grid"/>
<text x="493.2" y="523" text-anchor="middle" class="axis">11:00</text>
<line x1="701.8" y1="62" x2="701.8" y2="500" class="grid"/>
<text x="701.8" y="523" text-anchor="middle" class="axis">12:00</text>
<line x1="910.5" y1="62" x2="910.5" y2="500" class="grid"/>
<text x="910.5" y="523" text-anchor="middle" class="axis">13:00</text>
<line x1="1119.1" y1="62" x2="1119.1" y2="500" class="grid"/>
<text x="1119.1" y="523" text-anchor="middle" class="axis">14:00</text>
<line x1="1327.7" y1="62" x2="1327.7" y2="500" class="grid"/>
<text x="1327.7" y="523" text-anchor="middle" class="axis">15:00</text>
<line x1="1432.0" y1="62" x2="1432.0" y2="500" class="grid"/>
<text x="1432.0" y="523" text-anchor="middle" class="axis">15:30</text>
<g><title>#1 SHORT ENTRY 09:41:00 4,766 → 09:42:00 4,768 −¥200 100株</title>
<line x1="218.6" y1="330.1" x2="222.0" y2="280.5" class="tradeLine" stroke="#ff6b7a"/>
<polygon points="218.6,340.1 212.6,327.1 224.6,327.1" class="entryShort"/>
<circle cx="222.0" cy="280.5" r="4.2" class="exit" fill="#ff6b7a"/>
<text x="225.6" y="346.0" text-anchor="start" class="label markerNegative">#1 E 4,766</text>
<text x="229.0" y="273.5" text-anchor="start" class="label markerNegative">EXIT −¥200</text>
</g>
<g><title>#2 SHORT ENTRY 09:50:00 4,770 → 09:51:00 4,769 +¥100 100株</title>
<line x1="249.8" y1="230.8" x2="253.3" y2="255.7" class="tradeLine" stroke="#4fd394"/>
<polygon points="249.8,240.8 243.8,227.8 255.8,227.8" class="entryShort"/>
<circle cx="253.3" cy="255.7" r="4.2" class="exit" fill="#4fd394"/>
<text x="256.8" y="250.8" text-anchor="start" class="label markerPositive">#2 E 4,770</text>
<text x="260.3" y="248.7" text-anchor="start" class="label markerPositive">TP +¥100</text>
</g>
<g><title>#3 SHORT ENTRY 09:50:00 4,776 → 09:51:00 4,769 +¥700 100株</title>
<line x1="249.8" y1="81.9" x2="253.3" y2="255.7" class="tradeLine" stroke="#4fd394"/>
<polygon points="249.8,91.9 243.8,78.9 255.8,78.9" class="entryShort"/>
<circle cx="253.3" cy="255.7" r="4.2" class="exit" fill="#4fd394"/>
<text x="256.8" y="101.9" text-anchor="start" class="label markerPositive">#3 E 4,776</text>
<text x="260.3" y="248.7" text-anchor="start" class="label markerPositive">TP +¥700</text>
</g>
<text x="754.0" y="206.0" text-anchor="middle" class="hitNote">歩み値データなし（約定マーカーのみ）</text>
<text x="76" y="343" class="muted">価格（円） / 15秒足</text>
<text x="76" y="493" class="muted">出来高（株） / 橙枠=出来高上位5本</text>
<text x="1432" y="523" text-anchor="end" class="axis">時刻</text>
</svg>